<svg xmlns="http://www.w3.org/2000/svg" version="1.1" xmlns:xlink="http://www.w3.org/1999/xlink" width="1000" height="1000"><metadata><rdf:RDF xmlns:rdf="http://www.w3.org/1999/02/22-rdf-syntax-ns#" xmlns:dc="http://purl.org/dc/elements/1.1/"><rdf:Description><dc:creator>RealFaviconGenerator</dc:creator><dc:source>https://realfavicongenerator.net</dc:source></rdf:Description></rdf:RDF></metadata><style>
    #light-icon {
      display: inline;
    }
    #dark-icon {
      display: none;
    }

    @media (prefers-color-scheme: dark) {
      #light-icon {
        display: none;
      }
      #dark-icon {
        display: inline;
      }
    }
  </style><g id="light-icon"><svg xmlns="http://www.w3.org/2000/svg" version="1.1" xmlns:xlink="http://www.w3.org/1999/xlink" width="1000" height="1000"><g><g transform="matrix(5.58659217877095,0,0,5.58659217877095,0,287.70949720670393)"><svg xmlns="http://www.w3.org/2000/svg" width="179" height="76" viewBox="0 0 179 76" fill="none"><path d="M18.7109 12.4766C17.5651 12.4766 16.7448 12.6328 16.25 12.9453C15.7682 13.2448 15.5273 13.8242 15.5273 14.6836V26.7539H19.4336C19.9674 26.7539 20.4167 26.7018 20.7812 26.5977C21.1458 26.4935 21.4323 26.2786 21.6406 25.9531C21.849 25.6146 21.9922 25.1458 22.0703 24.5469C22.1615 23.9479 22.207 23.1536 22.207 22.1641H29.043V34H0.800781V26.7539C1.94661 26.7539 2.76693 26.6042 3.26172 26.3047C3.75651 25.9922 4.00391 25.4128 4.00391 24.5664V14.6836C4.00391 13.8242 3.75651 13.2448 3.26172 12.9453C2.76693 12.6328 1.94661 12.4766 0.800781 12.4766V5.23047H18.7109V12.4766ZM30.6445 34V26.7539C31.7904 26.7539 32.6107 26.6042 33.1055 26.3047C33.6003 25.9922 33.8477 25.4128 33.8477 24.5664V14.6836C33.8477 13.8242 33.6003 13.2448 33.1055 12.9453C32.6107 12.6328 31.7904 12.4766 30.6445 12.4766V5.23047H48.5547V12.4766C47.4089 12.4766 46.5885 12.6328 46.0938 12.9453C45.612 13.2448 45.3711 13.8242 45.3711 14.6836V24.5664C45.3711 25.4128 45.612 25.9922 46.0938 26.3047C46.5885 26.6042 47.4089 26.7539 48.5547 26.7539V34H30.6445ZM81.2891 5.23047V16.6758H74.8633C74.8633 15.8034 74.8372 15.0482 74.7852 14.4102C74.7461 13.7591 74.6484 13.2383 74.4922 12.8477C74.3359 12.444 74.0951 12.151 73.7695 11.9688C73.457 11.7734 73.0339 11.6758 72.5 11.6758H71.2891V24.5664C71.2891 25.4128 71.5365 25.9922 72.0312 26.3047C72.526 26.6042 73.3464 26.7539 74.4922 26.7539V34H56.582V26.7539C57.7279 26.7539 58.5417 26.6042 59.0234 26.3047C59.5182 25.9922 59.7656 25.4128 59.7656 24.5664V11.6758H58.5742C58.0404 11.6758 57.6107 11.7734 57.2852 11.9688C56.9727 12.151 56.7318 12.444 56.5625 12.8477C56.4062 13.2383 56.3086 13.7591 56.2695 14.4102C56.2305 15.0482 56.2109 15.8034 56.2109 16.6758H49.7656V5.23047H81.2891ZM113.633 5.23047V16.6758H107.207C107.207 15.8034 107.181 15.0482 107.129 14.4102C107.09 13.7591 106.992 13.2383 106.836 12.8477C106.68 12.444 106.439 12.151 106.113 11.9688C105.801 11.7734 105.378 11.6758 104.844 11.6758H103.633V24.5664C103.633 25.4128 103.88 25.9922 104.375 26.3047C104.87 26.6042 105.69 26.7539 106.836 26.7539V34H88.9258V26.7539C90.0716 26.7539 90.8854 26.6042 91.3672 26.3047C91.862 25.9922 92.1094 25.4128 92.1094 24.5664V11.6758H90.918C90.3841 11.6758 89.9544 11.7734 89.6289 11.9688C89.3164 12.151 89.0755 12.444 88.9062 12.8477C88.75 13.2383 88.6523 13.7591 88.6133 14.4102C88.5742 15.0482 88.5547 15.8034 88.5547 16.6758H82.1094V5.23047H113.633ZM132.773 12.4766C131.628 12.4766 130.807 12.6328 130.312 12.9453C129.831 13.2448 129.59 13.8242 129.59 14.6836V26.7539H133.496C134.03 26.7539 134.479 26.7018 134.844 26.5977C135.208 26.4935 135.495 26.2786 135.703 25.9531C135.911 25.6146 136.055 25.1458 136.133 24.5469C136.224 23.9479 136.27 23.1536 136.27 22.1641H143.105V34H114.863V26.7539C116.009 26.7539 116.829 26.6042 117.324 26.3047C117.819 25.9922 118.066 25.4128 118.066 24.5664V14.6836C118.066 13.8242 117.819 13.2448 117.324 12.9453C116.829 12.6328 116.009 12.4766 114.863 12.4766V5.23047H132.773V12.4766ZM162.949 26.7539C163.483 26.7539 163.926 26.7083 164.277 26.6172C164.642 26.526 164.928 26.3568 165.137 26.1094C165.358 25.849 165.508 25.4974 165.586 25.0547C165.664 24.612 165.703 24.0456 165.703 23.3555H172.539V34H144.707V26.7539C145.853 26.7539 146.673 26.6042 147.168 26.3047C147.663 25.9922 147.91 25.4128 147.91 24.5664V14.6836C147.91 13.8242 147.663 13.2448 147.168 12.9453C146.673 12.6328 145.853 12.4766 144.707 12.4766V5.23047H172.539V15.875H165.703C165.703 15.1849 165.664 14.6185 165.586 14.1758C165.508 13.7331 165.358 13.388 165.137 13.1406C164.928 12.8932 164.642 12.724 164.277 12.6328C163.926 12.5286 163.483 12.4766 162.949 12.4766H159.434V17.6719H165.664V21.1289H159.434V26.7539H162.949ZM18.7109 50.4766C17.5651 50.4766 16.7448 50.6328 16.25 50.9453C15.7682 51.2448 15.5273 51.8242 15.5273 52.6836V64.7539H19.4336C19.9674 64.7539 20.4167 64.7018 20.7812 64.5977C21.1458 64.4935 21.4323 64.2786 21.6406 63.9531C21.849 63.6146 21.9922 63.1458 22.0703 62.5469C22.1615 61.9479 22.207 61.1536 22.207 60.1641H29.043V72H0.800781V64.7539C1.94661 64.7539 2.76693 64.6042 3.26172 64.3047C3.75651 63.9922 4.00391 63.4128 4.00391 62.5664V52.6836C4.00391 51.8242 3.75651 51.2448 3.26172 50.9453C2.76693 50.6328 1.94661 50.4766 0.800781 50.4766V43.2305H18.7109V50.4766ZM48.8867 64.7539C49.4206 64.7539 49.8633 64.7083 50.2148 64.6172C50.5794 64.526 50.8659 64.3568 51.0742 64.1094C51.2956 63.849 51.4453 63.4974 51.5234 63.0547C51.6016 62.612 51.6406 62.0456 51.6406 61.3555H58.4766V72H30.6445V64.7539C31.7904 64.7539 32.6107 64.6042 33.1055 64.3047C33.6003 63.9922 33.8477 63.4128 33.8477 62.5664V52.6836C33.8477 51.8242 33.6003 51.2448 33.1055 50.9453C32.6107 50.6328 31.7904 50.4766 30.6445 50.4766V43.2305H58.4766V53.875H51.6406C51.6406 53.1849 51.6016 52.6185 51.5234 52.1758C51.4453 51.7331 51.2956 51.388 51.0742 51.1406C50.8659 50.8932 50.5794 50.724 50.2148 50.6328C49.8633 50.5286 49.4206 50.4766 48.8867 50.4766H45.3711V55.6719H51.6016V59.1289H45.3711V64.7539H48.8867ZM88.1445 72V64.7539C89.2904 64.7539 90.0391 64.6042 90.3906 64.3047C90.7552 63.9922 90.9375 63.4128 90.9375 62.5664V51.3555L84.2578 72H76.7383L69.9414 52.4492V62.8008C69.9414 63.2305 69.9805 63.5755 70.0586 63.8359C70.1367 64.0833 70.2734 64.2786 70.4688 64.4219C70.6771 64.5651 70.9635 64.6562 71.3281 64.6953C71.7057 64.7344 72.1745 64.7539 72.7344 64.7539V72H60.0977V64.7539C61.2435 64.7539 62.0638 64.6042 62.5586 64.3047C63.0534 63.9922 63.3008 63.4128 63.3008 62.5664V52.6836C63.3008 51.8242 63.0534 51.2448 62.5586 50.9453C62.0638 50.6328 61.2435 50.4766 60.0977 50.4766V43.2305H78.6914L83.1836 56.7266L87.0898 43.2305H105.449V50.4766C104.303 50.4766 103.483 50.6328 102.988 50.9453C102.507 51.2448 102.266 51.8242 102.266 52.6836V62.5664C102.266 63.4128 102.507 63.9922 102.988 64.3047C103.483 64.6042 104.303 64.7539 105.449 64.7539V72H88.1445ZM178.027 43.2305V50.4766C176.882 50.4766 176.126 50.6654 175.762 51.043C175.41 51.4206 175.234 51.9674 175.234 52.6836V72H163.496L153.301 56.043V62.8008C153.301 63.6471 153.548 64.1875 154.043 64.4219C154.538 64.6432 155.358 64.7539 156.504 64.7539V72H143.066V64.7539C144.212 64.7539 145.033 64.6042 145.527 64.3047C146.022 63.9922 146.27 63.4128 146.27 62.5664V52.6836C146.27 51.8242 146.022 51.2448 145.527 50.9453C145.033 50.6328 144.212 50.4766 143.066 50.4766V43.2305H158.418L168.184 58.5234V52.6836C168.184 51.8242 168.001 51.2448 167.637 50.9453C167.285 50.6328 166.536 50.4766 165.391 50.4766V43.2305H178.027Z" fill="#2F6656"></path><path d="M107.246 57.6445C107.246 55.1315 107.656 52.931 108.477 51.043C109.31 49.1419 110.482 47.5534 111.992 46.2773C113.503 45.0013 115.293 44.0443 117.363 43.4062C119.447 42.7682 121.745 42.4492 124.258 42.4492C126.758 42.4492 129.049 42.7682 131.133 43.4062C133.216 44.0443 135.007 45.0013 136.504 46.2773C138.014 47.5534 139.18 49.1419 140 51.043C140.833 52.931 141.25 55.1315 141.25 57.6445C141.25 60.1445 140.833 62.3451 140 64.2461C139.18 66.1341 138.014 67.7227 136.504 69.0117C135.007 70.2878 133.216 71.2448 131.133 71.8828C129.049 72.5208 126.758 72.8398 124.258 72.8398C121.745 72.8398 119.447 72.5208 117.363 71.8828C115.293 71.2448 113.503 70.2878 111.992 69.0117C110.482 67.7227 109.31 66.1341 108.477 64.2461C107.656 62.3451 107.246 60.1445 107.246 57.6445ZM120.371 57.6445C120.371 59.2201 120.43 60.5417 120.547 61.6094C120.664 62.6641 120.866 63.5234 121.152 64.1875C121.452 64.8385 121.849 65.3138 122.344 65.6133C122.839 65.8997 123.477 66.043 124.258 66.043C125 66.043 125.625 65.8997 126.133 65.6133C126.641 65.3138 127.038 64.8385 127.324 64.1875C127.624 63.5234 127.832 62.6641 127.949 61.6094C128.066 60.5417 128.125 59.2201 128.125 57.6445C128.125 56.0951 128.066 54.7799 127.949 53.6992C127.832 52.6185 127.624 51.7526 127.324 51.1016C127.038 50.4505 126.641 49.9818 126.133 49.6953C125.625 49.3958 125 49.2461 124.258 49.2461C123.477 49.2461 122.839 49.3958 122.344 49.6953C121.849 49.9818 121.452 50.4505 121.152 51.1016C120.866 51.7526 120.664 52.6185 120.547 53.6992C120.43 54.7799 120.371 56.0951 120.371 57.6445Z" fill="#F4CE14"></path></svg></g></g></svg></g><g id="dark-icon"><svg xmlns="http://www.w3.org/2000/svg" version="1.1" xmlns:xlink="http://www.w3.org/1999/xlink" width="1000" height="1000"><g><g transform="matrix(5.617977528089888,0,0,5.617977528089888,-5.684341886080802e-14,308.9887640449438)"><svg xmlns="http://www.w3.org/2000/svg" width="178" height="68" viewBox="0 0 178 68" fill="none"><path d="M17.9102 7.24609C16.7643 7.24609 15.944 7.40234 15.4492 7.71484C14.9674 8.01432 14.7266 8.59375 14.7266 9.45312V21.5234H18.6328C19.1667 21.5234 19.6159 21.4714 19.9805 21.3672C20.3451 21.263 20.6315 21.0482 20.8398 20.7227C21.0482 20.3841 21.1914 19.9154 21.2695 19.3164C21.3607 18.7174 21.4062 17.9232 21.4062 16.9336H28.2422V28.7695H0V21.5234C1.14583 21.5234 1.96615 21.3737 2.46094 21.0742C2.95573 20.7617 3.20312 20.1823 3.20312 19.3359V9.45312C3.20312 8.59375 2.95573 8.01432 2.46094 7.71484C1.96615 7.40234 1.14583 7.24609 0 7.24609V0H17.9102V7.24609Z" fill="#FEF8E6"></path><path d="M29.8438 28.7695V21.5234C30.9896 21.5234 31.8099 21.3737 32.3047 21.0742C32.7995 20.7617 33.0469 20.1823 33.0469 19.3359V9.45312C33.0469 8.59375 32.7995 8.01432 32.3047 7.71484C31.8099 7.40234 30.9896 7.24609 29.8438 7.24609V0H47.7539V7.24609C46.6081 7.24609 45.7878 7.40234 45.293 7.71484C44.8112 8.01432 44.5703 8.59375 44.5703 9.45312V19.3359C44.5703 20.1823 44.8112 20.7617 45.293 21.0742C45.7878 21.3737 46.6081 21.5234 47.7539 21.5234V28.7695H29.8438Z" fill="#FEF8E6"></path><path d="M80.4883 0V11.4453H74.0625C74.0625 10.5729 74.0365 9.81771 73.9844 9.17969C73.9453 8.52865 73.8477 8.00781 73.6914 7.61719C73.5352 7.21354 73.2943 6.92057 72.9688 6.73828C72.6562 6.54297 72.2331 6.44531 71.6992 6.44531H70.4883V19.3359C70.4883 20.1823 70.7357 20.7617 71.2305 21.0742C71.7253 21.3737 72.5456 21.5234 73.6914 21.5234V28.7695H55.7812V21.5234C56.9271 21.5234 57.7409 21.3737 58.2227 21.0742C58.7174 20.7617 58.9648 20.1823 58.9648 19.3359V6.44531H57.7734C57.2396 6.44531 56.8099 6.54297 56.4844 6.73828C56.1719 6.92057 55.931 7.21354 55.7617 7.61719C55.6055 8.00781 55.5078 8.52865 55.4688 9.17969C55.4297 9.81771 55.4102 10.5729 55.4102 11.4453H48.9648V0H80.4883Z" fill="#FEF8E6"></path><path d="M112.832 0V11.4453H106.406C106.406 10.5729 106.38 9.81771 106.328 9.17969C106.289 8.52865 106.191 8.00781 106.035 7.61719C105.879 7.21354 105.638 6.92057 105.312 6.73828C105 6.54297 104.577 6.44531 104.043 6.44531H102.832V19.3359C102.832 20.1823 103.079 20.7617 103.574 21.0742C104.069 21.3737 104.889 21.5234 106.035 21.5234V28.7695H88.125V21.5234C89.2708 21.5234 90.0846 21.3737 90.5664 21.0742C91.0612 20.7617 91.3086 20.1823 91.3086 19.3359V6.44531H90.1172C89.5833 6.44531 89.1536 6.54297 88.8281 6.73828C88.5156 6.92057 88.2747 7.21354 88.1055 7.61719C87.9492 8.00781 87.8516 8.52865 87.8125 9.17969C87.7734 9.81771 87.7539 10.5729 87.7539 11.4453H81.3086V0H112.832Z" fill="#FEF8E6"></path><path d="M131.973 7.24609C130.827 7.24609 130.007 7.40234 129.512 7.71484C129.03 8.01432 128.789 8.59375 128.789 9.45312V21.5234H132.695C133.229 21.5234 133.678 21.4714 134.043 21.3672C134.408 21.263 134.694 21.0482 134.902 20.7227C135.111 20.3841 135.254 19.9154 135.332 19.3164C135.423 18.7174 135.469 17.9232 135.469 16.9336H142.305V28.7695H114.062V21.5234C115.208 21.5234 116.029 21.3737 116.523 21.0742C117.018 20.7617 117.266 20.1823 117.266 19.3359V9.45312C117.266 8.59375 117.018 8.01432 116.523 7.71484C116.029 7.40234 115.208 7.24609 114.062 7.24609V0H131.973V7.24609Z" fill="#FEF8E6"></path><path d="M162.148 21.5234C162.682 21.5234 163.125 21.4779 163.477 21.3867C163.841 21.2956 164.128 21.1263 164.336 20.8789C164.557 20.6185 164.707 20.2669 164.785 19.8242C164.863 19.3815 164.902 18.8151 164.902 18.125H171.738V28.7695H143.906V21.5234C145.052 21.5234 145.872 21.3737 146.367 21.0742C146.862 20.7617 147.109 20.1823 147.109 19.3359V9.45312C147.109 8.59375 146.862 8.01432 146.367 7.71484C145.872 7.40234 145.052 7.24609 143.906 7.24609V0H171.738V10.6445H164.902C164.902 9.95443 164.863 9.38802 164.785 8.94531C164.707 8.5026 164.557 8.15755 164.336 7.91016C164.128 7.66276 163.841 7.49349 163.477 7.40234C163.125 7.29818 162.682 7.24609 162.148 7.24609H158.633V12.4414H164.863V15.8984H158.633V21.5234H162.148Z" fill="#FEF8E6"></path><path d="M17.9102 45.2461C16.7643 45.2461 15.944 45.4023 15.4492 45.7148C14.9674 46.0143 14.7266 46.5938 14.7266 47.4531V59.5234H18.6328C19.1667 59.5234 19.6159 59.4714 19.9805 59.3672C20.3451 59.263 20.6315 59.0482 20.8398 58.7227C21.0482 58.3841 21.1914 57.9154 21.2695 57.3164C21.3607 56.7174 21.4062 55.9232 21.4062 54.9336H28.2422V66.7695H0V59.5234C1.14583 59.5234 1.96615 59.3737 2.46094 59.0742C2.95573 58.7617 3.20312 58.1823 3.20312 57.3359V47.4531C3.20312 46.5938 2.95573 46.0143 2.46094 45.7148C1.96615 45.4023 1.14583 45.2461 0 45.2461V38H17.9102V45.2461Z" fill="#FEF8E6"></path><path d="M48.0859 59.5234C48.6198 59.5234 49.0625 59.4779 49.4141 59.3867C49.7786 59.2956 50.0651 59.1263 50.2734 58.8789C50.4948 58.6185 50.6445 58.2669 50.7227 57.8242C50.8008 57.3815 50.8398 56.8151 50.8398 56.125H57.6758V66.7695H29.8438V59.5234C30.9896 59.5234 31.8099 59.3737 32.3047 59.0742C32.7995 58.7617 33.0469 58.1823 33.0469 57.3359V47.4531C33.0469 46.5938 32.7995 46.0143 32.3047 45.7148C31.8099 45.4023 30.9896 45.2461 29.8438 45.2461V38H57.6758V48.6445H50.8398C50.8398 47.9544 50.8008 47.388 50.7227 46.9453C50.6445 46.5026 50.4948 46.1576 50.2734 45.9102C50.0651 45.6628 49.7786 45.4935 49.4141 45.4023C49.0625 45.2982 48.6198 45.2461 48.0859 45.2461H44.5703V50.4414H50.8008V53.8984H44.5703V59.5234H48.0859Z" fill="#FEF8E6"></path><path d="M87.3438 66.7695V59.5234C88.4896 59.5234 89.2383 59.3737 89.5898 59.0742C89.9544 58.7617 90.1367 58.1823 90.1367 57.3359V46.125L83.457 66.7695H75.9375L69.1406 47.2188V57.5703C69.1406 58 69.1797 58.3451 69.2578 58.6055C69.3359 58.8529 69.4727 59.0482 69.668 59.1914C69.8763 59.3346 70.1628 59.4258 70.5273 59.4648C70.9049 59.5039 71.3737 59.5234 71.9336 59.5234V66.7695H59.2969V59.5234C60.4427 59.5234 61.263 59.3737 61.7578 59.0742C62.2526 58.7617 62.5 58.1823 62.5 57.3359V47.4531C62.5 46.5938 62.2526 46.0143 61.7578 45.7148C61.263 45.4023 60.4427 45.2461 59.2969 45.2461V38H77.8906L82.3828 51.4961L86.2891 38H104.648V45.2461C103.503 45.2461 102.682 45.4023 102.188 45.7148C101.706 46.0143 101.465 46.5938 101.465 47.4531V57.3359C101.465 58.1823 101.706 58.7617 102.188 59.0742C102.682 59.3737 103.503 59.5234 104.648 59.5234V66.7695H87.3438Z" fill="#FEF8E6"></path><path d="M106.445 52.4141C106.445 49.901 106.855 47.7005 107.676 45.8125C108.509 43.9115 109.681 42.3229 111.191 41.0469C112.702 39.7708 114.492 38.8138 116.562 38.1758C118.646 37.5378 120.944 37.2188 123.457 37.2188C125.957 37.2188 128.249 37.5378 130.332 38.1758C132.415 38.8138 134.206 39.7708 135.703 41.0469C137.214 42.3229 138.379 43.9115 139.199 45.8125C140.033 47.7005 140.449 49.901 140.449 52.4141C140.449 54.9141 140.033 57.1146 139.199 59.0156C138.379 60.9036 137.214 62.4922 135.703 63.7812C134.206 65.0573 132.415 66.0143 130.332 66.6523C128.249 67.2904 125.957 67.6094 123.457 67.6094C120.944 67.6094 118.646 67.2904 116.562 66.6523C114.492 66.0143 112.702 65.0573 111.191 63.7812C109.681 62.4922 108.509 60.9036 107.676 59.0156C106.855 57.1146 106.445 54.9141 106.445 52.4141ZM119.57 52.4141C119.57 53.9896 119.629 55.3112 119.746 56.3789C119.863 57.4336 120.065 58.293 120.352 58.957C120.651 59.6081 121.048 60.0833 121.543 60.3828C122.038 60.6693 122.676 60.8125 123.457 60.8125C124.199 60.8125 124.824 60.6693 125.332 60.3828C125.84 60.0833 126.237 59.6081 126.523 58.957C126.823 58.293 127.031 57.4336 127.148 56.3789C127.266 55.3112 127.324 53.9896 127.324 52.4141C127.324 50.8646 127.266 49.5495 127.148 48.4688C127.031 47.388 126.823 46.5221 126.523 45.8711C126.237 45.2201 125.84 44.7513 125.332 44.4648C124.824 44.1654 124.199 44.0156 123.457 44.0156C122.676 44.0156 122.038 44.1654 121.543 44.4648C121.048 44.7513 120.651 45.2201 120.352 45.8711C120.065 46.5221 119.863 47.388 119.746 48.4688C119.629 49.5495 119.57 50.8646 119.57 52.4141Z" fill="#F4CE14"></path><path d="M177.227 38V45.2461C176.081 45.2461 175.326 45.4349 174.961 45.8125C174.609 46.1901 174.434 46.737 174.434 47.4531V66.7695H162.695L152.5 50.8125V57.5703C152.5 58.4167 152.747 58.957 153.242 59.1914C153.737 59.4128 154.557 59.5234 155.703 59.5234V66.7695H142.266V59.5234C143.411 59.5234 144.232 59.3737 144.727 59.0742C145.221 58.7617 145.469 58.1823 145.469 57.3359V47.4531C145.469 46.5938 145.221 46.0143 144.727 45.7148C144.232 45.4023 143.411 45.2461 142.266 45.2461V38H157.617L167.383 53.293V47.4531C167.383 46.5938 167.201 46.0143 166.836 45.7148C166.484 45.4023 165.736 45.2461 164.59 45.2461V38H177.227Z" fill="#FEF8E6"></path></svg></g></g></svg></g></svg>