<svg width="178" height="68" viewBox="0 0 178 68" fill="none" xmlns="http://www.w3.org/2000/svg">
<path d="M17.9102 7.24609C16.7643 7.24609 15.944 7.40234 15.4492 7.71484C14.9674 8.01432 14.7266 8.59375 14.7266 9.45312V21.5234H18.6328C19.1667 21.5234 19.6159 21.4714 19.9805 21.3672C20.3451 21.263 20.6315 21.0482 20.8398 20.7227C21.0482 20.3841 21.1914 19.9154 21.2695 19.3164C21.3607 18.7174 21.4062 17.9232 21.4062 16.9336H28.2422V28.7695H0V21.5234C1.14583 21.5234 1.96615 21.3737 2.46094 21.0742C2.95573 20.7617 3.20312 20.1823 3.20312 19.3359V9.45312C3.20312 8.59375 2.95573 8.01432 2.46094 7.71484C1.96615 7.40234 1.14583 7.24609 0 7.24609V0H17.9102V7.24609Z" fill="#FEF8E6"/>
<path d="M29.8438 28.7695V21.5234C30.9896 21.5234 31.8099 21.3737 32.3047 21.0742C32.7995 20.7617 33.0469 20.1823 33.0469 19.3359V9.45312C33.0469 8.59375 32.7995 8.01432 32.3047 7.71484C31.8099 7.40234 30.9896 7.24609 29.8438 7.24609V0H47.7539V7.24609C46.6081 7.24609 45.7878 7.40234 45.293 7.71484C44.8112 8.01432 44.5703 8.59375 44.5703 9.45312V19.3359C44.5703 20.1823 44.8112 20.7617 45.293 21.0742C45.7878 21.3737 46.6081 21.5234 47.7539 21.5234V28.7695H29.8438Z" fill="#FEF8E6"/>
<path d="M80.4883 0V11.4453H74.0625C74.0625 10.5729 74.0365 9.81771 73.9844 9.17969C73.9453 8.52865 73.8477 8.00781 73.6914 7.61719C73.5352 7.21354 73.2943 6.92057 72.9688 6.73828C72.6562 6.54297 72.2331 6.44531 71.6992 6.44531H70.4883V19.3359C70.4883 20.1823 70.7357 20.7617 71.2305 21.0742C71.7253 21.3737 72.5456 21.5234 73.6914 21.5234V28.7695H55.7812V21.5234C56.9271 21.5234 57.7409 21.3737 58.2227 21.0742C58.7174 20.7617 58.9648 20.1823 58.9648 19.3359V6.44531H57.7734C57.2396 6.44531 56.8099 6.54297 56.4844 6.73828C56.1719 6.92057 55.931 7.21354 55.7617 7.61719C55.6055 8.00781 55.5078 8.52865 55.4688 9.17969C55.4297 9.81771 55.4102 10.5729 55.4102 11.4453H48.9648V0H80.4883Z" fill="#FEF8E6"/>
<path d="M112.832 0V11.4453H106.406C106.406 10.5729 106.38 9.81771 106.328 9.17969C106.289 8.52865 106.191 8.00781 106.035 7.61719C105.879 7.21354 105.638 6.92057 105.312 6.73828C105 6.54297 104.577 6.44531 104.043 6.44531H102.832V19.3359C102.832 20.1823 103.079 20.7617 103.574 21.0742C104.069 21.3737 104.889 21.5234 106.035 21.5234V28.7695H88.125V21.5234C89.2708 21.5234 90.0846 21.3737 90.5664 21.0742C91.0612 20.7617 91.3086 20.1823 91.3086 19.3359V6.44531H90.1172C89.5833 6.44531 89.1536 6.54297 88.8281 6.73828C88.5156 6.92057 88.2747 7.21354 88.1055 7.61719C87.9492 8.00781 87.8516 8.52865 87.8125 9.17969C87.7734 9.81771 87.7539 10.5729 87.7539 11.4453H81.3086V0H112.832Z" fill="#FEF8E6"/>
<path d="M131.973 7.24609C130.827 7.24609 130.007 7.40234 129.512 7.71484C129.03 8.01432 128.789 8.59375 128.789 9.45312V21.5234H132.695C133.229 21.5234 133.678 21.4714 134.043 21.3672C134.408 21.263 134.694 21.0482 134.902 20.7227C135.111 20.3841 135.254 19.9154 135.332 19.3164C135.423 18.7174 135.469 17.9232 135.469 16.9336H142.305V28.7695H114.062V21.5234C115.208 21.5234 116.029 21.3737 116.523 21.0742C117.018 20.7617 117.266 20.1823 117.266 19.3359V9.45312C117.266 8.59375 117.018 8.01432 116.523 7.71484C116.029 7.40234 115.208 7.24609 114.062 7.24609V0H131.973V7.24609Z" fill="#FEF8E6"/>
<path d="M162.148 21.5234C162.682 21.5234 163.125 21.4779 163.477 21.3867C163.841 21.2956 164.128 21.1263 164.336 20.8789C164.557 20.6185 164.707 20.2669 164.785 19.8242C164.863 19.3815 164.902 18.8151 164.902 18.125H171.738V28.7695H143.906V21.5234C145.052 21.5234 145.872 21.3737 146.367 21.0742C146.862 20.7617 147.109 20.1823 147.109 19.3359V9.45312C147.109 8.59375 146.862 8.01432 146.367 7.71484C145.872 7.40234 145.052 7.24609 143.906 7.24609V0H171.738V10.6445H164.902C164.902 9.95443 164.863 9.38802 164.785 8.94531C164.707 8.5026 164.557 8.15755 164.336 7.91016C164.128 7.66276 163.841 7.49349 163.477 7.40234C163.125 7.29818 162.682 7.24609 162.148 7.24609H158.633V12.4414H164.863V15.8984H158.633V21.5234H162.148Z" fill="#FEF8E6"/>
<path d="M17.9102 45.2461C16.7643 45.2461 15.944 45.4023 15.4492 45.7148C14.9674 46.0143 14.7266 46.5938 14.7266 47.4531V59.5234H18.6328C19.1667 59.5234 19.6159 59.4714 19.9805 59.3672C20.3451 59.263 20.6315 59.0482 20.8398 58.7227C21.0482 58.3841 21.1914 57.9154 21.2695 57.3164C21.3607 56.7174 21.4062 55.9232 21.4062 54.9336H28.2422V66.7695H0V59.5234C1.14583 59.5234 1.96615 59.3737 2.46094 59.0742C2.95573 58.7617 3.20312 58.1823 3.20312 57.3359V47.4531C3.20312 46.5938 2.95573 46.0143 2.46094 45.7148C1.96615 45.4023 1.14583 45.2461 0 45.2461V38H17.9102V45.2461Z" fill="#FEF8E6"/>
<path d="M48.0859 59.5234C48.6198 59.5234 49.0625 59.4779 49.4141 59.3867C49.7786 59.2956 50.0651 59.1263 50.2734 58.8789C50.4948 58.6185 50.6445 58.2669 50.7227 57.8242C50.8008 57.3815 50.8398 56.8151 50.8398 56.125H57.6758V66.7695H29.8438V59.5234C30.9896 59.5234 31.8099 59.3737 32.3047 59.0742C32.7995 58.7617 33.0469 58.1823 33.0469 57.3359V47.4531C33.0469 46.5938 32.7995 46.0143 32.3047 45.7148C31.8099 45.4023 30.9896 45.2461 29.8438 45.2461V38H57.6758V48.6445H50.8398C50.8398 47.9544 50.8008 47.388 50.7227 46.9453C50.6445 46.5026 50.4948 46.1576 50.2734 45.9102C50.0651 45.6628 49.7786 45.4935 49.4141 45.4023C49.0625 45.2982 48.6198 45.2461 48.0859 45.2461H44.5703V50.4414H50.8008V53.8984H44.5703V59.5234H48.0859Z" fill="#FEF8E6"/>
<path d="M87.3438 66.7695V59.5234C88.4896 59.5234 89.2383 59.3737 89.5898 59.0742C89.9544 58.7617 90.1367 58.1823 90.1367 57.3359V46.125L83.457 66.7695H75.9375L69.1406 47.2188V57.5703C69.1406 58 69.1797 58.3451 69.2578 58.6055C69.3359 58.8529 69.4727 59.0482 69.668 59.1914C69.8763 59.3346 70.1628 59.4258 70.5273 59.4648C70.9049 59.5039 71.3737 59.5234 71.9336 59.5234V66.7695H59.2969V59.5234C60.4427 59.5234 61.263 59.3737 61.7578 59.0742C62.2526 58.7617 62.5 58.1823 62.5 57.3359V47.4531C62.5 46.5938 62.2526 46.0143 61.7578 45.7148C61.263 45.4023 60.4427 45.2461 59.2969 45.2461V38H77.8906L82.3828 51.4961L86.2891 38H104.648V45.2461C103.503 45.2461 102.682 45.4023 102.188 45.7148C101.706 46.0143 101.465 46.5938 101.465 47.4531V57.3359C101.465 58.1823 101.706 58.7617 102.188 59.0742C102.682 59.3737 103.503 59.5234 104.648 59.5234V66.7695H87.3438Z" fill="#FEF8E6"/>
<path d="M106.445 52.4141C106.445 49.901 106.855 47.7005 107.676 45.8125C108.509 43.9115 109.681 42.3229 111.191 41.0469C112.702 39.7708 114.492 38.8138 116.562 38.1758C118.646 37.5378 120.944 37.2188 123.457 37.2188C125.957 37.2188 128.249 37.5378 130.332 38.1758C132.415 38.8138 134.206 39.7708 135.703 41.0469C137.214 42.3229 138.379 43.9115 139.199 45.8125C140.033 47.7005 140.449 49.901 140.449 52.4141C140.449 54.9141 140.033 57.1146 139.199 59.0156C138.379 60.9036 137.214 62.4922 135.703 63.7812C134.206 65.0573 132.415 66.0143 130.332 66.6523C128.249 67.2904 125.957 67.6094 123.457 67.6094C120.944 67.6094 118.646 67.2904 116.562 66.6523C114.492 66.0143 112.702 65.0573 111.191 63.7812C109.681 62.4922 108.509 60.9036 107.676 59.0156C106.855 57.1146 106.445 54.9141 106.445 52.4141ZM119.57 52.4141C119.57 53.9896 119.629 55.3112 119.746 56.3789C119.863 57.4336 120.065 58.293 120.352 58.957C120.651 59.6081 121.048 60.0833 121.543 60.3828C122.038 60.6693 122.676 60.8125 123.457 60.8125C124.199 60.8125 124.824 60.6693 125.332 60.3828C125.84 60.0833 126.237 59.6081 126.523 58.957C126.823 58.293 127.031 57.4336 127.148 56.3789C127.266 55.3112 127.324 53.9896 127.324 52.4141C127.324 50.8646 127.266 49.5495 127.148 48.4688C127.031 47.388 126.823 46.5221 126.523 45.8711C126.237 45.2201 125.84 44.7513 125.332 44.4648C124.824 44.1654 124.199 44.0156 123.457 44.0156C122.676 44.0156 122.038 44.1654 121.543 44.4648C121.048 44.7513 120.651 45.2201 120.352 45.8711C120.065 46.5221 119.863 47.388 119.746 48.4688C119.629 49.5495 119.57 50.8646 119.57 52.4141Z" fill="#FEF8E6"/>
<path d="M177.227 38V45.2461C176.081 45.2461 175.326 45.4349 174.961 45.8125C174.609 46.1901 174.434 46.737 174.434 47.4531V66.7695H162.695L152.5 50.8125V57.5703C152.5 58.4167 152.747 58.957 153.242 59.1914C153.737 59.4128 154.557 59.5234 155.703 59.5234V66.7695H142.266V59.5234C143.411 59.5234 144.232 59.3737 144.727 59.0742C145.221 58.7617 145.469 58.1823 145.469 57.3359V47.4531C145.469 46.5938 145.221 46.0143 144.727 45.7148C144.232 45.4023 143.411 45.2461 142.266 45.2461V38H157.617L167.383 53.293V47.4531C167.383 46.5938 167.201 46.0143 166.836 45.7148C166.484 45.4023 165.736 45.2461 164.59 45.2461V38H177.227Z" fill="#FEF8E6"/>
</svg>
